<svg width="850" height="850" viewBox="0 0 850 850" fill="none" xmlns="http://www.w3.org/2000/svg">
<g clip-path="url(#clip0_21_2)">
<rect width="850" height="850" fill="#DFDAD7"/>
<rect x="182" y="133" width="486" height="486" fill="#DFDAD7"/>
<g filter="url(#filter0_i_21_2)">
<rect x="417" y="124" width="16" height="239" rx="8" fill="#172A39"/>
</g>
<g filter="url(#filter1_i_21_2)">
<rect x="291" y="155" width="16" height="278" rx="8" fill="#172A39"/>
</g>
<g filter="url(#filter2_i_21_2)">
<rect x="543" y="155" width="16" height="128" rx="8" fill="#172A39"/>
</g>
<g filter="url(#filter3_i_21_2)">
<rect x="407" y="371" width="16" height="237" rx="8" transform="rotate(90 407 371)" fill="#172A39"/>
</g>
<g filter="url(#filter4_i_21_2)">
<rect x="649" y="247" width="16" height="449" rx="8" transform="rotate(90 649 247)" fill="#172A39"/>
</g>
<rect x="313" y="317.498" width="70" height="70" rx="35" transform="rotate(-45 313 317.498)" fill="#D9D9D9"/>
<g filter="url(#filter5_i_21_2)">
<rect x="380.176" y="285.678" width="20" height="70" rx="10" transform="rotate(45 380.176 285.678)" fill="#172A39"/>
</g>
<g filter="url(#filter6_i_21_2)">
<rect x="394.317" y="335.175" width="20" height="70" rx="10" transform="rotate(135 394.317 335.175)" fill="#172A39"/>
</g>
<rect x="187" y="317.498" width="70" height="70" rx="35" transform="rotate(-45 187 317.498)" fill="#D9D9D9"/>
<g filter="url(#filter7_i_21_2)">
<rect x="254.176" y="285.678" width="20" height="70" rx="10" transform="rotate(45 254.176 285.678)" fill="#172A39"/>
</g>
<g filter="url(#filter8_i_21_2)">
<rect x="268.317" y="335.175" width="20" height="70" rx="10" transform="rotate(135 268.317 335.175)" fill="#172A39"/>
</g>
<g filter="url(#filter9_i_21_2)">
<circle cx="488" cy="192" r="35" fill="#FC573B"/>
</g>
<g filter="url(#filter10_i_21_2)">
<path d="M741.5 394.5C746 405.5 686.225 530.684 669.5 544.5C661.204 551.353 587.348 548.22 512 546.5C435.428 544.752 357.332 544.304 347 537.5C326.5 524 315 478.5 316 471.5C317 464.5 391.5 463.5 394 461C396.5 458.5 403 416 406 411.5C409 407 448.5 404.5 450.5 402.5C452.5 400.5 449.5 366 452 362C454.5 358 467 357 469.5 357C472 357 493.5 357.5 495 356C496.5 354.5 493 311.5 496.5 309.5C500 307.5 526.5 302.5 530 308C533.5 313.5 531 352 532 354C533 356 580 353 581 355.5C582 358 580 414 582 418C584 422 737 383.5 741.5 394.5Z" fill="#FC573B"/>
</g>
<g filter="url(#filter11_i_21_2)">
<path d="M191 468V508.552L192.229 508.198L193.47 507.844L194.711 507.499L195.94 507.154L197.181 506.8L198.41 506.465L199.651 506.12L200.88 505.776L202.121 505.44L203.35 505.105L204.579 504.769L205.82 504.443L207.049 504.117L208.29 503.791L209.531 503.465L210.76 503.148L211.989 502.832L213.23 502.515L214.471 502.208L215.7 501.891L216.929 501.593L218.17 501.285L219.411 500.987L220.64 500.689L221.881 500.4L223.11 500.112L224.339 499.832L225.58 499.543L226.821 499.273L228.05 498.994L229.291 498.723L230.52 498.463L231.761 498.202L232.99 497.941L234.231 497.689L235.46 497.438L236.689 497.186L237.93 496.953L239.159 496.711L240.4 496.478L241.641 496.255L242.87 496.031L244.111 495.808L245.34 495.593L246.581 495.388L247.81 495.183L249.039 494.979L250.28 494.783L251.509 494.597L252.75 494.41L253.991 494.233L255.22 494.056L256.461 493.879L257.69 493.721L258.931 493.563L260.16 493.404L261.389 493.255L262.63 493.106L263.859 492.966L265.1 492.836L266.341 492.705L267.57 492.584L268.799 492.463L270.04 492.351L271.281 492.249L272.51 492.147L273.751 492.053L274.98 491.96L276.209 491.876L277.45 491.802L278.691 491.727L279.92 491.662L281.149 491.597L282.39 491.541L283.631 491.485L284.86 491.448L286.101 491.401L287.33 491.373L288.559 491.345L289.8 491.317L291.041 491.308L292.27 491.299L293.499 491.289H294.74L295.981 491.299L297.21 491.308L298.451 491.327L299.68 491.355L300.909 491.383L302.15 491.42L303.391 491.457L304.62 491.504L305.849 491.56L307.09 491.616L308.331 491.681L309.56 491.746L310.801 491.82L312.03 491.904L313.259 491.988L314.5 492.081L315.741 492.184L316.97 492.286L318.199 492.389L319.44 492.51L320.681 492.622L321.91 492.752L323.151 492.882L324.38 493.013L325.609 493.153L326.85 493.302L328.091 493.451L329.32 493.609L330.549 493.777L331.79 493.935L333.031 494.112L334.26 494.289L335.501 494.475L336.73 494.662L337.959 494.848L339.2 495.044L340.429 495.249L341.67 495.454L342.899 495.668L344.14 495.882L345.381 496.106L346.61 496.329L347.851 496.553L349.08 496.795L350.321 497.028L351.55 497.27L352.779 497.522L354.02 497.773L355.249 498.025L356.49 498.286L357.731 498.546L358.96 498.817L360.201 499.087L361.43 499.357L362.671 499.636L363.9 499.925L365.129 500.205L366.37 500.503L367.599 500.792L368.84 501.09L370.081 501.388L371.31 501.695L372.551 501.993L373.78 502.31L375.021 502.617L376.25 502.934L377.479 503.251L378.72 503.577L379.949 503.894L381.19 504.22L382.431 504.555L383.66 504.881L384.901 505.217L386.13 505.552L387.371 505.897L388.6 506.232L389.829 506.577L391.07 506.921L392.299 507.266L393.54 507.611L394.781 507.965L396.01 508.319L397.251 508.673L398.48 509.027L399.721 509.381L400.95 509.735L402.179 510.098L403.42 510.452L404.649 510.815L405.89 511.179L407.131 511.542L408.36 511.905L409.601 512.269L410.83 512.632L412.071 512.995L413.3 513.359L414.529 513.722L415.77 514.095L416.999 514.458L418.24 514.821L419.481 515.184L420.71 515.557L421.951 515.92L423.18 516.284L424.421 516.647L425.65 517.01L426.879 517.374L428.12 517.737L429.349 518.1L430.59 518.464L431.831 518.827L433.06 519.181L434.301 519.544L435.53 519.898L436.771 520.252L438 520.606L439.229 520.96L440.47 521.314L441.699 521.659L442.94 522.004L444.181 522.358L445.41 522.693L446.651 523.038L447.88 523.382L449.121 523.718L450.35 524.053L451.579 524.388L452.82 524.715L454.049 525.041L455.29 525.367L456.531 525.693L457.76 526.009L459.001 526.326L460.23 526.643L461.471 526.95L462.7 527.267L463.929 527.565L465.17 527.873L466.399 528.171L467.64 528.469L468.881 528.758L470.11 529.046L471.351 529.326L472.58 529.615L473.821 529.885L475.05 530.164L476.279 530.434L477.52 530.695L478.749 530.956L479.99 531.217L481.231 531.468L482.46 531.72L483.701 531.972L484.93 532.204L486.171 532.447L487.4 532.68L488.629 532.903L489.87 533.127L491.111 533.35L492.34 533.565L493.581 533.769L494.81 533.974L496.039 534.179L497.28 534.375L498.521 534.561L499.75 534.748L500.979 534.925L502.22 535.102L503.461 535.279L504.69 535.437L505.931 535.595L507.16 535.754L508.389 535.903L509.63 536.052L510.871 536.192L512.1 536.322L513.329 536.452L514.57 536.574L515.811 536.695L517.04 536.806L518.281 536.909L519.51 537.011L520.739 537.105L521.98 537.198L523.221 537.282L524.45 537.356L525.679 537.431L526.92 537.496L528.161 537.561L529.39 537.617L530.631 537.673L531.86 537.71L533.089 537.757L534.33 537.785L535.571 537.813L536.8 537.84L538.029 537.85L539.27 537.859L540.511 537.868H541.74L542.981 537.859L544.21 537.85L545.439 537.831L546.68 537.803L547.921 537.775L549.15 537.738L550.379 537.701L551.62 537.654L552.861 537.598L554.09 537.542L555.331 537.477L556.56 537.412L557.789 537.337L559.03 537.254L560.271 537.17L561.5 537.077L562.729 536.974L563.97 536.872L565.211 536.769L566.44 536.648L567.681 536.536L568.91 536.406L570.139 536.275L571.38 536.145L572.621 536.005L573.85 535.856L575.079 535.707L576.32 535.549L577.561 535.381L578.79 535.223L580.031 535.046L581.26 534.869L582.489 534.682L583.73 534.496L584.971 534.31L586.2 534.114L587.429 533.909L588.67 533.704L589.911 533.49L591.14 533.276L592.381 533.052L593.61 532.829L594.839 532.605L596.08 532.363L597.321 532.13L598.55 531.888L599.779 531.636L601.02 531.385L602.261 531.133L603.49 530.872L604.731 530.611L605.96 530.341L607.189 530.071L608.43 529.801L609.671 529.521L610.9 529.233L612.129 528.953L613.37 528.655L614.611 528.366L615.84 528.068L617.081 527.77L618.31 527.463L619.539 527.165L620.78 526.848L622.021 526.54L623.25 526.224L624.479 525.907L625.72 525.581L626.961 525.264L628.19 524.938L629.431 524.603L630.66 524.277L631.889 523.941L633.13 523.606L634.371 523.261L635.6 522.926L636.829 522.581L638.07 522.237L639.311 521.892L640.54 521.547L641.781 521.193L643.01 520.839L644.239 520.485L645.48 520.131L646.721 519.777L647.95 519.423L649.179 519.06L650.42 518.706L651.661 518.343L652.89 517.979L654.131 517.616L655.36 517.253L656.589 516.889L657.83 516.526L659.071 516.163L660.3 515.799L661.529 515.436L662.77 515.063L664.011 514.7L665.24 514.337L666.481 513.973L667.71 513.601L668.939 513.237L670.18 512.874L671.421 512.511L672.65 512.148L673.879 511.784L675.12 511.421L676.361 511.058L677.59 510.694L678.831 510.331L680.06 509.977L681.289 509.614L682.53 509.26L683.771 508.906L685 508.552V645H191V468Z" fill="#3B80FC"/>
</g>
<g filter="url(#filter12_i_21_2)">
<path d="M680.648 362.588C678.694 325.342 668.626 288.973 651.146 256.026C633.667 223.078 609.199 194.348 579.456 171.845C549.712 149.342 515.41 133.61 478.951 125.75C442.492 117.889 404.755 118.091 368.382 126.34C332.008 134.588 297.876 150.685 268.374 173.505C238.873 196.324 214.713 225.313 197.586 258.446C180.46 291.578 170.779 328.052 169.223 365.317C167.667 402.582 174.272 439.736 188.576 474.181" stroke="#172A39" stroke-width="26" stroke-linecap="round"/>
</g>
<path d="M711.707 208.6C670.948 138.791 606.12 86.2515 529.382 60.8361C452.645 35.4207 369.271 38.8756 294.9 70.5528C220.529 102.23 160.27 159.953 125.426 232.894C90.5818 305.836 83.5473 388.984 105.642 466.743C127.736 544.501 177.441 611.527 245.434 655.249C313.426 698.97 395.034 716.383 474.951 704.221C554.867 692.059 627.601 651.157 679.509 589.188C731.417 527.22 758.932 448.442 756.894 367.631" stroke="#DFDAD7" stroke-width="126"/>
<g filter="url(#filter13_i_21_2)">
<path d="M110.773 713H57.0085V567.545H110.702C125.522 567.545 138.282 570.457 148.983 576.281C159.731 582.058 168.017 590.391 173.841 601.281C179.665 612.124 182.577 625.098 182.577 640.202C182.577 655.353 179.665 668.374 173.841 679.264C168.064 690.154 159.802 698.511 149.054 704.335C138.306 710.112 125.545 713 110.773 713ZM92.1648 683.028H109.423C117.567 683.028 124.456 681.655 130.091 678.909C135.773 676.116 140.058 671.594 142.946 665.344C145.882 659.046 147.349 650.666 147.349 640.202C147.349 629.738 145.882 621.404 142.946 615.202C140.01 608.952 135.678 604.454 129.949 601.707C124.267 598.914 117.259 597.517 108.926 597.517H92.1648V683.028ZM248.026 715.06C236.567 715.06 226.719 712.716 218.48 708.028C210.289 703.294 203.968 696.712 199.517 688.284C195.114 679.809 192.912 669.984 192.912 658.81C192.912 647.588 195.114 637.763 199.517 629.335C203.968 620.86 210.289 614.278 218.48 609.591C226.719 604.856 236.567 602.489 248.026 602.489C259.484 602.489 269.309 604.856 277.5 609.591C285.739 614.278 292.06 620.86 296.463 629.335C300.914 637.763 303.139 647.588 303.139 658.81C303.139 669.984 300.914 679.809 296.463 688.284C292.06 696.712 285.739 703.294 277.5 708.028C269.309 712.716 259.484 715.06 248.026 715.06ZM248.239 688.852C252.405 688.852 255.933 687.574 258.821 685.017C261.709 682.46 263.911 678.909 265.426 674.364C266.989 669.818 267.77 664.562 267.77 658.597C267.77 652.536 266.989 647.233 265.426 642.688C263.911 638.142 261.709 634.591 258.821 632.034C255.933 629.477 252.405 628.199 248.239 628.199C243.93 628.199 240.284 629.477 237.301 632.034C234.366 634.591 232.116 638.142 230.554 642.688C229.039 647.233 228.281 652.536 228.281 658.597C228.281 664.562 229.039 669.818 230.554 674.364C232.116 678.909 234.366 682.46 237.301 685.017C240.284 687.574 243.93 688.852 248.239 688.852ZM376.507 603.909V629.477H307.686V603.909H376.507ZM322.104 577.773H356.834V678.696C356.834 680.827 357.165 682.555 357.828 683.881C358.538 685.159 359.556 686.082 360.882 686.651C362.208 687.171 363.794 687.432 365.641 687.432C366.966 687.432 368.363 687.313 369.831 687.077C371.346 686.793 372.482 686.556 373.24 686.366L378.496 711.438C376.839 711.911 374.495 712.503 371.464 713.213C368.482 713.923 364.907 714.373 360.74 714.562C352.596 714.941 345.612 713.994 339.788 711.722C334.012 709.402 329.585 705.803 326.507 700.926C323.477 696.049 322.009 689.918 322.104 682.531V577.773ZM466.849 611.153C466.376 605.945 464.269 601.897 460.528 599.009C456.835 596.073 451.556 594.605 444.69 594.605C440.145 594.605 436.357 595.197 433.327 596.381C430.296 597.564 428.024 599.198 426.509 601.281C424.993 603.317 424.212 605.661 424.165 608.312C424.07 610.491 424.496 612.408 425.443 614.065C426.438 615.723 427.858 617.19 429.705 618.469C431.598 619.7 433.871 620.789 436.523 621.736C439.174 622.683 442.157 623.511 445.472 624.222L457.972 627.062C465.169 628.625 471.513 630.708 477.006 633.312C482.545 635.917 487.186 639.018 490.926 642.616C494.714 646.215 497.579 650.358 499.52 655.045C501.461 659.733 502.455 664.989 502.503 670.812C502.455 679.998 500.135 687.882 495.543 694.463C490.95 701.045 484.345 706.087 475.727 709.591C467.157 713.095 456.812 714.847 444.69 714.847C432.522 714.847 421.916 713.024 412.872 709.378C403.829 705.732 396.797 700.192 391.778 692.759C386.759 685.325 384.179 675.926 384.037 664.562H417.702C417.986 669.25 419.241 673.156 421.466 676.281C423.691 679.406 426.745 681.774 430.628 683.384C434.558 684.993 439.103 685.798 444.264 685.798C448.999 685.798 453.024 685.159 456.338 683.881C459.7 682.602 462.28 680.827 464.08 678.554C465.879 676.281 466.802 673.677 466.849 670.741C466.802 667.995 465.95 665.652 464.293 663.71C462.635 661.722 460.079 660.017 456.622 658.597C453.213 657.129 448.857 655.779 443.554 654.548L428.355 650.997C415.76 648.109 405.841 643.445 398.597 637.006C391.352 630.519 387.754 621.759 387.801 610.727C387.754 601.731 390.169 593.848 395.045 587.077C399.922 580.306 406.67 575.027 415.287 571.239C423.904 567.451 433.729 565.557 444.761 565.557C456.03 565.557 465.808 567.474 474.094 571.31C482.427 575.098 488.89 580.424 493.483 587.29C498.076 594.155 500.42 602.11 500.514 611.153H466.849ZM548.989 650.784V713H514.259V567.545H547.852V623.938H549.06C551.522 617.214 555.546 611.958 561.134 608.17C566.768 604.383 573.657 602.489 581.801 602.489C589.472 602.489 596.148 604.193 601.83 607.602C607.511 610.964 611.915 615.723 615.04 621.878C618.212 628.033 619.775 635.23 619.727 643.469V713H584.997V650.287C585.045 644.226 583.529 639.491 580.452 636.082C577.374 632.673 573.042 630.969 567.455 630.969C563.809 630.969 560.589 631.774 557.795 633.384C555.049 634.946 552.895 637.195 551.332 640.131C549.817 643.066 549.036 646.617 548.989 650.784ZM635.407 713V603.909H670.137V713H635.407ZM652.808 591.196C647.931 591.196 643.74 589.586 640.237 586.366C636.733 583.099 634.981 579.17 634.981 574.577C634.981 570.031 636.733 566.149 640.237 562.929C643.74 559.662 647.931 558.028 652.808 558.028C657.732 558.028 661.922 559.662 665.379 562.929C668.882 566.149 670.634 570.031 670.634 574.577C670.634 579.17 668.882 583.099 665.379 586.366C661.922 589.586 657.732 591.196 652.808 591.196ZM686.243 753.909V603.909H720.618V622.588H721.683C723.104 619.274 725.116 616.078 727.72 613C730.372 609.922 733.733 607.413 737.805 605.472C741.925 603.483 746.849 602.489 752.578 602.489C760.154 602.489 767.232 604.477 773.814 608.455C780.443 612.432 785.793 618.563 789.865 626.849C793.937 635.135 795.973 645.694 795.973 658.526C795.973 670.884 794.008 681.229 790.078 689.562C786.196 697.896 780.94 704.146 774.311 708.312C767.73 712.479 760.414 714.562 752.365 714.562C746.873 714.562 742.114 713.663 738.089 711.864C734.065 710.064 730.679 707.697 727.933 704.761C725.234 701.826 723.151 698.677 721.683 695.315H720.973V753.909H686.243ZM720.263 658.455C720.263 664.326 721.044 669.439 722.607 673.795C724.216 678.152 726.513 681.537 729.496 683.952C732.526 686.319 736.148 687.503 740.362 687.503C744.624 687.503 748.246 686.319 751.229 683.952C754.212 681.537 756.461 678.152 757.976 673.795C759.538 669.439 760.32 664.326 760.32 658.455C760.32 652.583 759.538 647.493 757.976 643.185C756.461 638.876 754.212 635.538 751.229 633.17C748.293 630.803 744.671 629.619 740.362 629.619C736.101 629.619 732.479 630.779 729.496 633.099C726.513 635.42 724.216 638.734 722.607 643.043C721.044 647.351 720.263 652.489 720.263 658.455Z" fill="#172A39"/>
</g>
<g filter="url(#filter14_i_21_2)">
<ellipse cx="652.5" cy="575" rx="19.5" ry="17" fill="#FC573B"/>
</g>
</g>
<defs>
<filter id="filter0_i_21_2" x="417" y="124" width="16" height="243" filterUnits="userSpaceOnUse" color-interpolation-filters="sRGB">
<feFlood flood-opacity="0" result="BackgroundImageFix"/>
<feBlend mode="normal" in="SourceGraphic" in2="BackgroundImageFix" result="shape"/>
<feColorMatrix in="SourceAlpha" type="matrix" values="0 0 0 0 0 0 0 0 0 0 0 0 0 0 0 0 0 0 127 0" result="hardAlpha"/>
<feOffset dy="4"/>
<feGaussianBlur stdDeviation="2"/>
<feComposite in2="hardAlpha" operator="arithmetic" k2="-1" k3="1"/>
<feColorMatrix type="matrix" values="0 0 0 0 0 0 0 0 0 0 0 0 0 0 0 0 0 0 0.25 0"/>
<feBlend mode="normal" in2="shape" result="effect1_innerShadow_21_2"/>
</filter>
<filter id="filter1_i_21_2" x="291" y="155" width="16" height="282" filterUnits="userSpaceOnUse" color-interpolation-filters="sRGB">
<feFlood flood-opacity="0" result="BackgroundImageFix"/>
<feBlend mode="normal" in="SourceGraphic" in2="BackgroundImageFix" result="shape"/>
<feColorMatrix in="SourceAlpha" type="matrix" values="0 0 0 0 0 0 0 0 0 0 0 0 0 0 0 0 0 0 127 0" result="hardAlpha"/>
<feOffset dy="4"/>
<feGaussianBlur stdDeviation="2"/>
<feComposite in2="hardAlpha" operator="arithmetic" k2="-1" k3="1"/>
<feColorMatrix type="matrix" values="0 0 0 0 0 0 0 0 0 0 0 0 0 0 0 0 0 0 0.25 0"/>
<feBlend mode="normal" in2="shape" result="effect1_innerShadow_21_2"/>
</filter>
<filter id="filter2_i_21_2" x="543" y="155" width="16" height="132" filterUnits="userSpaceOnUse" color-interpolation-filters="sRGB">
<feFlood flood-opacity="0" result="BackgroundImageFix"/>
<feBlend mode="normal" in="SourceGraphic" in2="BackgroundImageFix" result="shape"/>
<feColorMatrix in="SourceAlpha" type="matrix" values="0 0 0 0 0 0 0 0 0 0 0 0 0 0 0 0 0 0 127 0" result="hardAlpha"/>
<feOffset dy="4"/>
<feGaussianBlur stdDeviation="2"/>
<feComposite in2="hardAlpha" operator="arithmetic" k2="-1" k3="1"/>
<feColorMatrix type="matrix" values="0 0 0 0 0 0 0 0 0 0 0 0 0 0 0 0 0 0 0.25 0"/>
<feBlend mode="normal" in2="shape" result="effect1_innerShadow_21_2"/>
</filter>
<filter id="filter3_i_21_2" x="170" y="371" width="237" height="20" filterUnits="userSpaceOnUse" color-interpolation-filters="sRGB">
<feFlood flood-opacity="0" result="BackgroundImageFix"/>
<feBlend mode="normal" in="SourceGraphic" in2="BackgroundImageFix" result="shape"/>
<feColorMatrix in="SourceAlpha" type="matrix" values="0 0 0 0 0 0 0 0 0 0 0 0 0 0 0 0 0 0 127 0" result="hardAlpha"/>
<feOffset dy="4"/>
<feGaussianBlur stdDeviation="2"/>
<feComposite in2="hardAlpha" operator="arithmetic" k2="-1" k3="1"/>
<feColorMatrix type="matrix" values="0 0 0 0 0 0 0 0 0 0 0 0 0 0 0 0 0 0 0.25 0"/>
<feBlend mode="normal" in2="shape" result="effect1_innerShadow_21_2"/>
</filter>
<filter id="filter4_i_21_2" x="200" y="247" width="449" height="20" filterUnits="userSpaceOnUse" color-interpolation-filters="sRGB">
<feFlood flood-opacity="0" result="BackgroundImageFix"/>
<feBlend mode="normal" in="SourceGraphic" in2="BackgroundImageFix" result="shape"/>
<feColorMatrix in="SourceAlpha" type="matrix" values="0 0 0 0 0 0 0 0 0 0 0 0 0 0 0 0 0 0 127 0" result="hardAlpha"/>
<feOffset dy="4"/>
<feGaussianBlur stdDeviation="2"/>
<feComposite in2="hardAlpha" operator="arithmetic" k2="-1" k3="1"/>
<feColorMatrix type="matrix" values="0 0 0 0 0 0 0 0 0 0 0 0 0 0 0 0 0 0 0.25 0"/>
<feBlend mode="normal" in2="shape" result="effect1_innerShadow_21_2"/>
</filter>
<filter id="filter5_i_21_2" x="334.82" y="289.82" width="55.3555" height="59.3555" filterUnits="userSpaceOnUse" color-interpolation-filters="sRGB">
<feFlood flood-opacity="0" result="BackgroundImageFix"/>
<feBlend mode="normal" in="SourceGraphic" in2="BackgroundImageFix" result="shape"/>
<feColorMatrix in="SourceAlpha" type="matrix" values="0 0 0 0 0 0 0 0 0 0 0 0 0 0 0 0 0 0 127 0" result="hardAlpha"/>
<feOffset dy="4"/>
<feGaussianBlur stdDeviation="2"/>
<feComposite in2="hardAlpha" operator="arithmetic" k2="-1" k3="1"/>
<feColorMatrix type="matrix" values="0 0 0 0 0 0 0 0 0 0 0 0 0 0 0 0 0 0 0.25 0"/>
<feBlend mode="normal" in2="shape" result="effect1_innerShadow_21_2"/>
</filter>
<filter id="filter6_i_21_2" x="334.82" y="289.82" width="55.3545" height="59.3555" filterUnits="userSpaceOnUse" color-interpolation-filters="sRGB">
<feFlood flood-opacity="0" result="BackgroundImageFix"/>
<feBlend mode="normal" in="SourceGraphic" in2="BackgroundImageFix" result="shape"/>
<feColorMatrix in="SourceAlpha" type="matrix" values="0 0 0 0 0 0 0 0 0 0 0 0 0 0 0 0 0 0 127 0" result="hardAlpha"/>
<feOffset dy="4"/>
<feGaussianBlur stdDeviation="2"/>
<feComposite in2="hardAlpha" operator="arithmetic" k2="-1" k3="1"/>
<feColorMatrix type="matrix" values="0 0 0 0 0 0 0 0 0 0 0 0 0 0 0 0 0 0 0.25 0"/>
<feBlend mode="normal" in2="shape" result="effect1_innerShadow_21_2"/>
</filter>
<filter id="filter7_i_21_2" x="208.82" y="289.82" width="55.3555" height="59.3555" filterUnits="userSpaceOnUse" color-interpolation-filters="sRGB">
<feFlood flood-opacity="0" result="BackgroundImageFix"/>
<feBlend mode="normal" in="SourceGraphic" in2="BackgroundImageFix" result="shape"/>
<feColorMatrix in="SourceAlpha" type="matrix" values="0 0 0 0 0 0 0 0 0 0 0 0 0 0 0 0 0 0 127 0" result="hardAlpha"/>
<feOffset dy="4"/>
<feGaussianBlur stdDeviation="2"/>
<feComposite in2="hardAlpha" operator="arithmetic" k2="-1" k3="1"/>
<feColorMatrix type="matrix" values="0 0 0 0 0 0 0 0 0 0 0 0 0 0 0 0 0 0 0.25 0"/>
<feBlend mode="normal" in2="shape" result="effect1_innerShadow_21_2"/>
</filter>
<filter id="filter8_i_21_2" x="208.82" y="289.82" width="55.3545" height="59.3555" filterUnits="userSpaceOnUse" color-interpolation-filters="sRGB">
<feFlood flood-opacity="0" result="BackgroundImageFix"/>
<feBlend mode="normal" in="SourceGraphic" in2="BackgroundImageFix" result="shape"/>
<feColorMatrix in="SourceAlpha" type="matrix" values="0 0 0 0 0 0 0 0 0 0 0 0 0 0 0 0 0 0 127 0" result="hardAlpha"/>
<feOffset dy="4"/>
<feGaussianBlur stdDeviation="2"/>
<feComposite in2="hardAlpha" operator="arithmetic" k2="-1" k3="1"/>
<feColorMatrix type="matrix" values="0 0 0 0 0 0 0 0 0 0 0 0 0 0 0 0 0 0 0.25 0"/>
<feBlend mode="normal" in2="shape" result="effect1_innerShadow_21_2"/>
</filter>
<filter id="filter9_i_21_2" x="453" y="157" width="70" height="74" filterUnits="userSpaceOnUse" color-interpolation-filters="sRGB">
<feFlood flood-opacity="0" result="BackgroundImageFix"/>
<feBlend mode="normal" in="SourceGraphic" in2="BackgroundImageFix" result="shape"/>
<feColorMatrix in="SourceAlpha" type="matrix" values="0 0 0 0 0 0 0 0 0 0 0 0 0 0 0 0 0 0 127 0" result="hardAlpha"/>
<feOffset dy="4"/>
<feGaussianBlur stdDeviation="2"/>
<feComposite in2="hardAlpha" operator="arithmetic" k2="-1" k3="1"/>
<feColorMatrix type="matrix" values="0 0 0 0 0 0 0 0 0 0 0 0 0 0 0 0 0 0 0.25 0"/>
<feBlend mode="normal" in2="shape" result="effect1_innerShadow_21_2"/>
</filter>
<filter id="filter10_i_21_2" x="315.939" y="305.5" width="425.802" height="247.229" filterUnits="userSpaceOnUse" color-interpolation-filters="sRGB">
<feFlood flood-opacity="0" result="BackgroundImageFix"/>
<feBlend mode="normal" in="SourceGraphic" in2="BackgroundImageFix" result="shape"/>
<feColorMatrix in="SourceAlpha" type="matrix" values="0 0 0 0 0 0 0 0 0 0 0 0 0 0 0 0 0 0 127 0" result="hardAlpha"/>
<feOffset dy="4"/>
<feGaussianBlur stdDeviation="2"/>
<feComposite in2="hardAlpha" operator="arithmetic" k2="-1" k3="1"/>
<feColorMatrix type="matrix" values="0 0 0 0 0 0 0 0 0 0 0 0 0 0 0 0 0 0 0.25 0"/>
<feBlend mode="normal" in2="shape" result="effect1_innerShadow_21_2"/>
</filter>
<filter id="filter11_i_21_2" x="191" y="468" width="494" height="181" filterUnits="userSpaceOnUse" color-interpolation-filters="sRGB">
<feFlood flood-opacity="0" result="BackgroundImageFix"/>
<feBlend mode="normal" in="SourceGraphic" in2="BackgroundImageFix" result="shape"/>
<feColorMatrix in="SourceAlpha" type="matrix" values="0 0 0 0 0 0 0 0 0 0 0 0 0 0 0 0 0 0 127 0" result="hardAlpha"/>
<feOffset dy="4"/>
<feGaussianBlur stdDeviation="2"/>
<feComposite in2="hardAlpha" operator="arithmetic" k2="-1" k3="1"/>
<feColorMatrix type="matrix" values="0 0 0 0 0 0 0 0 0 0 0 0 0 0 0 0 0 0 0.25 0"/>
<feBlend mode="normal" in2="shape" result="effect1_innerShadow_21_2"/>
</filter>
<filter id="filter12_i_21_2" x="156" y="107" width="537.648" height="384.185" filterUnits="userSpaceOnUse" color-interpolation-filters="sRGB">
<feFlood flood-opacity="0" result="BackgroundImageFix"/>
<feBlend mode="normal" in="SourceGraphic" in2="BackgroundImageFix" result="shape"/>
<feColorMatrix in="SourceAlpha" type="matrix" values="0 0 0 0 0 0 0 0 0 0 0 0 0 0 0 0 0 0 127 0" result="hardAlpha"/>
<feOffset dy="4"/>
<feGaussianBlur stdDeviation="2"/>
<feComposite in2="hardAlpha" operator="arithmetic" k2="-1" k3="1"/>
<feColorMatrix type="matrix" values="0 0 0 0 0 0 0 0 0 0 0 0 0 0 0 0 0 0 0.25 0"/>
<feBlend mode="normal" in2="shape" result="effect1_innerShadow_21_2"/>
</filter>
<filter id="filter13_i_21_2" x="57.0088" y="558.028" width="738.964" height="199.881" filterUnits="userSpaceOnUse" color-interpolation-filters="sRGB">
<feFlood flood-opacity="0" result="BackgroundImageFix"/>
<feBlend mode="normal" in="SourceGraphic" in2="BackgroundImageFix" result="shape"/>
<feColorMatrix in="SourceAlpha" type="matrix" values="0 0 0 0 0 0 0 0 0 0 0 0 0 0 0 0 0 0 127 0" result="hardAlpha"/>
<feOffset dy="4"/>
<feGaussianBlur stdDeviation="2"/>
<feComposite in2="hardAlpha" operator="arithmetic" k2="-1" k3="1"/>
<feColorMatrix type="matrix" values="0 0 0 0 0 0 0 0 0 0 0 0 0 0 0 0 0 0 0.25 0"/>
<feBlend mode="normal" in2="shape" result="effect1_innerShadow_21_2"/>
</filter>
<filter id="filter14_i_21_2" x="633" y="558" width="39" height="38" filterUnits="userSpaceOnUse" color-interpolation-filters="sRGB">
<feFlood flood-opacity="0" result="BackgroundImageFix"/>
<feBlend mode="normal" in="SourceGraphic" in2="BackgroundImageFix" result="shape"/>
<feColorMatrix in="SourceAlpha" type="matrix" values="0 0 0 0 0 0 0 0 0 0 0 0 0 0 0 0 0 0 127 0" result="hardAlpha"/>
<feOffset dy="4"/>
<feGaussianBlur stdDeviation="2"/>
<feComposite in2="hardAlpha" operator="arithmetic" k2="-1" k3="1"/>
<feColorMatrix type="matrix" values="0 0 0 0 0 0 0 0 0 0 0 0 0 0 0 0 0 0 0.25 0"/>
<feBlend mode="normal" in2="shape" result="effect1_innerShadow_21_2"/>
</filter>
<clipPath id="clip0_21_2">
<rect width="850" height="850" fill="white"/>
</clipPath>
</defs>
</svg>
