<svg width="580" height="580" viewBox="0 0 580 580" fill="none" xmlns="http://www.w3.org/2000/svg">
<g clip-path="url(#clip0_41_2)">
<circle cx="290" cy="290" r="290" fill="#D9D9D9"/>
<mask id="mask0_41_2" style="mask-type:alpha" maskUnits="userSpaceOnUse" x="21" y="21" width="538" height="538">
<circle cx="290" cy="290" r="269" fill="#D9D9D9"/>
</mask>
<g mask="url(#mask0_41_2)">
<g filter="url(#filter0_i_41_2)">
<path d="M606.5 308.5C611 319.5 551.225 444.684 534.5 458.5C526.204 465.353 452.348 462.22 377 460.5C300.428 458.752 222.332 458.304 212 451.5C191.5 438 180 392.5 181 385.5C182 378.5 256.5 377.5 259 375C261.5 372.5 268 330 271 325.5C274 321 313.5 318.5 315.5 316.5C317.5 314.5 314.5 280 317 276C319.5 272 332 271 334.5 271C337 271 358.5 271.5 360 270C361.5 268.5 358 225.5 361.5 223.5C365 221.5 391.5 216.5 395 222C398.5 227.5 396 266 397 268C398 270 445 267 446 269.5C447 272 445 328 447 332C449 336 602 297.5 606.5 308.5Z" fill="#FC573B"/>
</g>
<g filter="url(#filter1_i_41_2)">
<path d="M56 382V422.552L57.2293 422.198L58.47 421.844L59.7107 421.499L60.94 421.154L62.1807 420.8L63.41 420.465L64.6507 420.12L65.88 419.776L67.1207 419.44L68.35 419.105L69.5793 418.769L70.82 418.443L72.0493 418.117L73.29 417.791L74.5307 417.465L75.76 417.148L76.9893 416.832L78.23 416.515L79.4707 416.208L80.7 415.891L81.9293 415.593L83.17 415.285L84.4107 414.987L85.64 414.689L86.8807 414.4L88.11 414.112L89.3393 413.832L90.58 413.543L91.8207 413.273L93.05 412.994L94.2907 412.723L95.52 412.463L96.7607 412.202L97.99 411.941L99.2307 411.689L100.46 411.438L101.689 411.186L102.93 410.953L104.159 410.711L105.4 410.478L106.641 410.255L107.87 410.031L109.111 409.808L110.34 409.593L111.581 409.388L112.81 409.183L114.039 408.979L115.28 408.783L116.509 408.597L117.75 408.41L118.991 408.233L120.22 408.056L121.461 407.879L122.69 407.721L123.931 407.563L125.16 407.404L126.389 407.255L127.63 407.106L128.859 406.966L130.1 406.836L131.341 406.705L132.57 406.584L133.799 406.463L135.04 406.351L136.281 406.249L137.51 406.147L138.751 406.053L139.98 405.96L141.209 405.876L142.45 405.802L143.691 405.727L144.92 405.662L146.149 405.597L147.39 405.541L148.631 405.485L149.86 405.448L151.101 405.401L152.33 405.373L153.559 405.345L154.8 405.317L156.041 405.308L157.27 405.299L158.499 405.289H159.74L160.981 405.299L162.21 405.308L163.451 405.327L164.68 405.355L165.909 405.383L167.15 405.42L168.391 405.457L169.62 405.504L170.849 405.56L172.09 405.616L173.331 405.681L174.56 405.746L175.801 405.82L177.03 405.904L178.259 405.988L179.5 406.081L180.741 406.184L181.97 406.286L183.199 406.389L184.44 406.51L185.681 406.622L186.91 406.752L188.151 406.882L189.38 407.013L190.609 407.153L191.85 407.302L193.091 407.451L194.32 407.609L195.549 407.777L196.79 407.935L198.031 408.112L199.26 408.289L200.501 408.475L201.73 408.662L202.959 408.848L204.2 409.044L205.429 409.249L206.67 409.454L207.899 409.668L209.14 409.882L210.381 410.106L211.61 410.329L212.851 410.553L214.08 410.795L215.321 411.028L216.55 411.27L217.779 411.522L219.02 411.773L220.249 412.025L221.49 412.286L222.731 412.546L223.96 412.817L225.201 413.087L226.43 413.357L227.671 413.636L228.9 413.925L230.129 414.205L231.37 414.503L232.599 414.792L233.84 415.09L235.081 415.388L236.31 415.695L237.551 415.993L238.78 416.31L240.021 416.617L241.25 416.934L242.479 417.251L243.72 417.577L244.949 417.894L246.19 418.22L247.431 418.555L248.66 418.881L249.901 419.217L251.13 419.552L252.371 419.897L253.6 420.232L254.829 420.577L256.07 420.921L257.299 421.266L258.54 421.611L259.781 421.965L261.01 422.319L262.251 422.673L263.48 423.027L264.721 423.381L265.95 423.735L267.179 424.098L268.42 424.452L269.649 424.815L270.89 425.179L272.131 425.542L273.36 425.905L274.601 426.269L275.83 426.632L277.071 426.995L278.3 427.359L279.529 427.722L280.77 428.095L281.999 428.458L283.24 428.821L284.481 429.184L285.71 429.557L286.951 429.92L288.18 430.284L289.421 430.647L290.65 431.01L291.879 431.374L293.12 431.737L294.349 432.1L295.59 432.464L296.831 432.827L298.06 433.181L299.301 433.544L300.53 433.898L301.771 434.252L303 434.606L304.229 434.96L305.47 435.314L306.699 435.659L307.94 436.004L309.181 436.358L310.41 436.693L311.651 437.038L312.88 437.382L314.121 437.718L315.35 438.053L316.579 438.388L317.82 438.715L319.049 439.041L320.29 439.367L321.531 439.693L322.76 440.009L324.001 440.326L325.23 440.643L326.471 440.95L327.7 441.267L328.929 441.565L330.17 441.873L331.399 442.171L332.64 442.469L333.881 442.758L335.11 443.046L336.351 443.326L337.58 443.615L338.821 443.885L340.05 444.164L341.279 444.434L342.52 444.695L343.749 444.956L344.99 445.217L346.231 445.468L347.46 445.72L348.701 445.972L349.93 446.204L351.171 446.447L352.4 446.68L353.629 446.903L354.87 447.127L356.111 447.35L357.34 447.565L358.581 447.769L359.81 447.974L361.039 448.179L362.28 448.375L363.521 448.561L364.75 448.748L365.979 448.925L367.22 449.102L368.461 449.279L369.69 449.437L370.931 449.595L372.16 449.754L373.389 449.903L374.63 450.052L375.871 450.192L377.1 450.322L378.329 450.452L379.57 450.574L380.811 450.695L382.04 450.806L383.281 450.909L384.51 451.011L385.739 451.105L386.98 451.198L388.221 451.282L389.45 451.356L390.679 451.431L391.92 451.496L393.161 451.561L394.39 451.617L395.631 451.673L396.86 451.71L398.089 451.757L399.33 451.785L400.571 451.813L401.8 451.84L403.029 451.85L404.27 451.859L405.511 451.868H406.74L407.981 451.859L409.21 451.85L410.439 451.831L411.68 451.803L412.921 451.775L414.15 451.738L415.379 451.701L416.62 451.654L417.861 451.598L419.09 451.542L420.331 451.477L421.56 451.412L422.789 451.337L424.03 451.254L425.271 451.17L426.5 451.077L427.729 450.974L428.97 450.872L430.211 450.769L431.44 450.648L432.681 450.536L433.91 450.406L435.139 450.275L436.38 450.145L437.621 450.005L438.85 449.856L440.079 449.707L441.32 449.549L442.561 449.381L443.79 449.223L445.031 449.046L446.26 448.869L447.489 448.682L448.73 448.496L449.971 448.31L451.2 448.114L452.429 447.909L453.67 447.704L454.911 447.49L456.14 447.276L457.381 447.052L458.61 446.829L459.839 446.605L461.08 446.363L462.321 446.13L463.55 445.888L464.779 445.636L466.02 445.385L467.261 445.133L468.49 444.872L469.731 444.611L470.96 444.341L472.189 444.071L473.43 443.801L474.671 443.521L475.9 443.233L477.129 442.953L478.37 442.655L479.611 442.366L480.84 442.068L482.081 441.77L483.31 441.463L484.539 441.165L485.78 440.848L487.021 440.54L488.25 440.224L489.479 439.907L490.72 439.581L491.961 439.264L493.19 438.938L494.431 438.603L495.66 438.277L496.889 437.941L498.13 437.606L499.371 437.261L500.6 436.926L501.829 436.581L503.07 436.237L504.311 435.892L505.54 435.547L506.781 435.193L508.01 434.839L509.239 434.485L510.48 434.131L511.721 433.777L512.95 433.423L514.179 433.06L515.42 432.706L516.661 432.343L517.89 431.979L519.131 431.616L520.36 431.253L521.589 430.889L522.83 430.526L524.071 430.163L525.3 429.799L526.529 429.436L527.77 429.063L529.011 428.7L530.24 428.337L531.481 427.973L532.71 427.601L533.939 427.237L535.18 426.874L536.421 426.511L537.65 426.148L538.879 425.784L540.12 425.421L541.361 425.058L542.59 424.694L543.831 424.331L545.06 423.977L546.289 423.614L547.53 423.26L548.771 422.906L550 422.552V559H56V382Z" fill="#3B80FC"/>
</g>
<g filter="url(#filter2_i_41_2)">
<circle cx="145" cy="145" r="124" fill="#FC573B"/>
</g>
<g filter="url(#filter3_i_41_2)">
<path d="M545.648 276.588C543.694 239.342 533.626 202.973 516.146 170.026C498.667 137.078 474.199 108.348 444.456 85.8446C414.712 63.3417 380.41 47.6098 343.951 39.7495C307.492 31.8893 269.755 32.0907 233.382 40.3395C197.008 48.5884 162.876 64.6855 133.374 87.5045C103.873 110.324 79.713 139.313 62.5863 172.446C45.4596 205.578 35.7794 242.052 34.223 279.317C32.6666 316.582 39.2715 353.736 53.5757 388.181" stroke="#172A39" stroke-width="26" stroke-linecap="round"/>
</g>
</g>
</g>
<defs>
<filter id="filter0_i_41_2" x="180.939" y="219.5" width="425.801" height="247.229" filterUnits="userSpaceOnUse" color-interpolation-filters="sRGB">
<feFlood flood-opacity="0" result="BackgroundImageFix"/>
<feBlend mode="normal" in="SourceGraphic" in2="BackgroundImageFix" result="shape"/>
<feColorMatrix in="SourceAlpha" type="matrix" values="0 0 0 0 0 0 0 0 0 0 0 0 0 0 0 0 0 0 127 0" result="hardAlpha"/>
<feOffset dy="4"/>
<feGaussianBlur stdDeviation="2"/>
<feComposite in2="hardAlpha" operator="arithmetic" k2="-1" k3="1"/>
<feColorMatrix type="matrix" values="0 0 0 0 0 0 0 0 0 0 0 0 0 0 0 0 0 0 0.25 0"/>
<feBlend mode="normal" in2="shape" result="effect1_innerShadow_41_2"/>
</filter>
<filter id="filter1_i_41_2" x="56" y="382" width="494" height="181" filterUnits="userSpaceOnUse" color-interpolation-filters="sRGB">
<feFlood flood-opacity="0" result="BackgroundImageFix"/>
<feBlend mode="normal" in="SourceGraphic" in2="BackgroundImageFix" result="shape"/>
<feColorMatrix in="SourceAlpha" type="matrix" values="0 0 0 0 0 0 0 0 0 0 0 0 0 0 0 0 0 0 127 0" result="hardAlpha"/>
<feOffset dy="4"/>
<feGaussianBlur stdDeviation="2"/>
<feComposite in2="hardAlpha" operator="arithmetic" k2="-1" k3="1"/>
<feColorMatrix type="matrix" values="0 0 0 0 0 0 0 0 0 0 0 0 0 0 0 0 0 0 0.25 0"/>
<feBlend mode="normal" in2="shape" result="effect1_innerShadow_41_2"/>
</filter>
<filter id="filter2_i_41_2" x="21" y="21" width="248" height="252" filterUnits="userSpaceOnUse" color-interpolation-filters="sRGB">
<feFlood flood-opacity="0" result="BackgroundImageFix"/>
<feBlend mode="normal" in="SourceGraphic" in2="BackgroundImageFix" result="shape"/>
<feColorMatrix in="SourceAlpha" type="matrix" values="0 0 0 0 0 0 0 0 0 0 0 0 0 0 0 0 0 0 127 0" result="hardAlpha"/>
<feOffset dy="4"/>
<feGaussianBlur stdDeviation="2"/>
<feComposite in2="hardAlpha" operator="arithmetic" k2="-1" k3="1"/>
<feColorMatrix type="matrix" values="0 0 0 0 0 0 0 0 0 0 0 0 0 0 0 0 0 0 0.25 0"/>
<feBlend mode="normal" in2="shape" result="effect1_innerShadow_41_2"/>
</filter>
<filter id="filter3_i_41_2" x="21" y="21" width="537.649" height="384.185" filterUnits="userSpaceOnUse" color-interpolation-filters="sRGB">
<feFlood flood-opacity="0" result="BackgroundImageFix"/>
<feBlend mode="normal" in="SourceGraphic" in2="BackgroundImageFix" result="shape"/>
<feColorMatrix in="SourceAlpha" type="matrix" values="0 0 0 0 0 0 0 0 0 0 0 0 0 0 0 0 0 0 127 0" result="hardAlpha"/>
<feOffset dy="4"/>
<feGaussianBlur stdDeviation="2"/>
<feComposite in2="hardAlpha" operator="arithmetic" k2="-1" k3="1"/>
<feColorMatrix type="matrix" values="0 0 0 0 0 0 0 0 0 0 0 0 0 0 0 0 0 0 0.25 0"/>
<feBlend mode="normal" in2="shape" result="effect1_innerShadow_41_2"/>
</filter>
<clipPath id="clip0_41_2">
<rect width="580" height="580" fill="white"/>
</clipPath>
</defs>
</svg>
