<svg width="1815" height="600" viewBox="0 0 1815 600" fill="none" xmlns="http://www.w3.org/2000/svg">
<g clip-path="url(#clip0_25_27)">
<rect width="1815" height="600" fill="#172A39"/>
<rect x="57" y="57" width="486" height="486" fill="#172A39"/>
<g filter="url(#filter0_i_25_27)">
<rect x="292" y="48" width="16" height="239" rx="8" fill="#DFDAD7"/>
</g>
<g filter="url(#filter1_i_25_27)">
<rect x="166" y="79" width="16" height="278" rx="8" fill="#DFDAD7"/>
</g>
<g filter="url(#filter2_i_25_27)">
<rect x="418" y="79" width="16" height="128" rx="8" fill="#DFDAD7"/>
</g>
<g filter="url(#filter3_i_25_27)">
<rect x="282" y="295" width="16" height="237" rx="8" transform="rotate(90 282 295)" fill="#DFDAD7"/>
</g>
<g filter="url(#filter4_i_25_27)">
<rect x="524" y="171" width="16" height="449" rx="8" transform="rotate(90 524 171)" fill="#DFDAD7"/>
</g>
<g filter="url(#filter5_i_25_27)">
<rect x="255.175" y="209.678" width="20" height="70" rx="10" transform="rotate(45 255.175 209.678)" fill="#DFDAD7"/>
</g>
<g filter="url(#filter6_i_25_27)">
<rect x="269.317" y="259.176" width="20" height="70" rx="10" transform="rotate(135 269.317 259.176)" fill="#DFDAD7"/>
</g>
<g filter="url(#filter7_i_25_27)">
<rect x="129.175" y="209.678" width="20" height="70" rx="10" transform="rotate(45 129.175 209.678)" fill="#DFDAD7"/>
</g>
<g filter="url(#filter8_i_25_27)">
<rect x="143.317" y="259.176" width="20" height="70" rx="10" transform="rotate(135 143.317 259.176)" fill="#DFDAD7"/>
</g>
<g filter="url(#filter9_i_25_27)">
<circle cx="363" cy="116" r="35" fill="#FC573B"/>
</g>
<g filter="url(#filter10_i_25_27)">
<path d="M616.5 318.5C621 329.5 561.225 454.684 544.5 468.5C536.204 475.353 462.348 472.22 387 470.5C310.428 468.752 232.332 468.304 222 461.5C201.5 448 190 402.5 191 395.5C192 388.5 266.5 387.5 269 385C271.5 382.5 278 340 281 335.5C284 331 323.5 328.5 325.5 326.5C327.5 324.5 324.5 290 327 286C329.5 282 342 281 344.5 281C347 281 368.5 281.5 370 280C371.5 278.5 368 235.5 371.5 233.5C375 231.5 401.5 226.5 405 232C408.5 237.5 406 276 407 278C408 280 455 277 456 279.5C457 282 455 338 457 342C459 346 612 307.5 616.5 318.5Z" fill="#FC573B"/>
</g>
<g filter="url(#filter11_i_25_27)">
<path d="M66 392V432.552L67.2293 432.198L68.47 431.844L69.7107 431.499L70.94 431.154L72.1807 430.8L73.41 430.465L74.6507 430.12L75.88 429.776L77.1207 429.44L78.35 429.105L79.5793 428.769L80.82 428.443L82.0493 428.117L83.29 427.791L84.5307 427.465L85.76 427.148L86.9893 426.832L88.23 426.515L89.4707 426.208L90.7 425.891L91.9293 425.593L93.17 425.285L94.4107 424.987L95.64 424.689L96.8807 424.4L98.11 424.112L99.3393 423.832L100.58 423.543L101.821 423.273L103.05 422.994L104.291 422.723L105.52 422.463L106.761 422.202L107.99 421.941L109.231 421.689L110.46 421.438L111.689 421.186L112.93 420.953L114.159 420.711L115.4 420.478L116.641 420.255L117.87 420.031L119.111 419.808L120.34 419.593L121.581 419.388L122.81 419.183L124.039 418.979L125.28 418.783L126.509 418.597L127.75 418.41L128.991 418.233L130.22 418.056L131.461 417.879L132.69 417.721L133.931 417.563L135.16 417.404L136.389 417.255L137.63 417.106L138.859 416.966L140.1 416.836L141.341 416.705L142.57 416.584L143.799 416.463L145.04 416.351L146.281 416.249L147.51 416.147L148.751 416.053L149.98 415.96L151.209 415.876L152.45 415.802L153.691 415.727L154.92 415.662L156.149 415.597L157.39 415.541L158.631 415.485L159.86 415.448L161.101 415.401L162.33 415.373L163.559 415.345L164.8 415.317L166.041 415.308L167.27 415.299L168.499 415.289H169.74L170.981 415.299L172.21 415.308L173.451 415.327L174.68 415.355L175.909 415.383L177.15 415.42L178.391 415.457L179.62 415.504L180.849 415.56L182.09 415.616L183.331 415.681L184.56 415.746L185.801 415.82L187.03 415.904L188.259 415.988L189.5 416.081L190.741 416.184L191.97 416.286L193.199 416.389L194.44 416.51L195.681 416.622L196.91 416.752L198.151 416.882L199.38 417.013L200.609 417.153L201.85 417.302L203.091 417.451L204.32 417.609L205.549 417.777L206.79 417.935L208.031 418.112L209.26 418.289L210.501 418.475L211.73 418.662L212.959 418.848L214.2 419.044L215.429 419.249L216.67 419.454L217.899 419.668L219.14 419.882L220.381 420.106L221.61 420.329L222.851 420.553L224.08 420.795L225.321 421.028L226.55 421.27L227.779 421.522L229.02 421.773L230.249 422.025L231.49 422.286L232.731 422.546L233.96 422.817L235.201 423.087L236.43 423.357L237.671 423.636L238.9 423.925L240.129 424.205L241.37 424.503L242.599 424.792L243.84 425.09L245.081 425.388L246.31 425.695L247.551 425.993L248.78 426.31L250.021 426.617L251.25 426.934L252.479 427.251L253.72 427.577L254.949 427.894L256.19 428.22L257.431 428.555L258.66 428.881L259.901 429.217L261.13 429.552L262.371 429.897L263.6 430.232L264.829 430.577L266.07 430.921L267.299 431.266L268.54 431.611L269.781 431.965L271.01 432.319L272.251 432.673L273.48 433.027L274.721 433.381L275.95 433.735L277.179 434.098L278.42 434.452L279.649 434.815L280.89 435.179L282.131 435.542L283.36 435.905L284.601 436.269L285.83 436.632L287.071 436.995L288.3 437.359L289.529 437.722L290.77 438.095L291.999 438.458L293.24 438.821L294.481 439.184L295.71 439.557L296.951 439.92L298.18 440.284L299.421 440.647L300.65 441.01L301.879 441.374L303.12 441.737L304.349 442.1L305.59 442.464L306.831 442.827L308.06 443.181L309.301 443.544L310.53 443.898L311.771 444.252L313 444.606L314.229 444.96L315.47 445.314L316.699 445.659L317.94 446.004L319.181 446.358L320.41 446.693L321.651 447.038L322.88 447.382L324.121 447.718L325.35 448.053L326.579 448.388L327.82 448.715L329.049 449.041L330.29 449.367L331.531 449.693L332.76 450.009L334.001 450.326L335.23 450.643L336.471 450.95L337.7 451.267L338.929 451.565L340.17 451.873L341.399 452.171L342.64 452.469L343.881 452.758L345.11 453.046L346.351 453.326L347.58 453.615L348.821 453.885L350.05 454.164L351.279 454.434L352.52 454.695L353.749 454.956L354.99 455.217L356.231 455.468L357.46 455.72L358.701 455.972L359.93 456.204L361.171 456.447L362.4 456.68L363.629 456.903L364.87 457.127L366.111 457.35L367.34 457.565L368.581 457.769L369.81 457.974L371.039 458.179L372.28 458.375L373.521 458.561L374.75 458.748L375.979 458.925L377.22 459.102L378.461 459.279L379.69 459.437L380.931 459.595L382.16 459.754L383.389 459.903L384.63 460.052L385.871 460.192L387.1 460.322L388.329 460.452L389.57 460.574L390.811 460.695L392.04 460.806L393.281 460.909L394.51 461.011L395.739 461.105L396.98 461.198L398.221 461.282L399.45 461.356L400.679 461.431L401.92 461.496L403.161 461.561L404.39 461.617L405.631 461.673L406.86 461.71L408.089 461.757L409.33 461.785L410.571 461.813L411.8 461.84L413.029 461.85L414.27 461.859L415.511 461.868H416.74L417.981 461.859L419.21 461.85L420.439 461.831L421.68 461.803L422.921 461.775L424.15 461.738L425.379 461.701L426.62 461.654L427.861 461.598L429.09 461.542L430.331 461.477L431.56 461.412L432.789 461.337L434.03 461.254L435.271 461.17L436.5 461.077L437.729 460.974L438.97 460.872L440.211 460.769L441.44 460.648L442.681 460.536L443.91 460.406L445.139 460.275L446.38 460.145L447.621 460.005L448.85 459.856L450.079 459.707L451.32 459.549L452.561 459.381L453.79 459.223L455.031 459.046L456.26 458.869L457.489 458.682L458.73 458.496L459.971 458.31L461.2 458.114L462.429 457.909L463.67 457.704L464.911 457.49L466.14 457.276L467.381 457.052L468.61 456.829L469.839 456.605L471.08 456.363L472.321 456.13L473.55 455.888L474.779 455.636L476.02 455.385L477.261 455.133L478.49 454.872L479.731 454.611L480.96 454.341L482.189 454.071L483.43 453.801L484.671 453.521L485.9 453.233L487.129 452.953L488.37 452.655L489.611 452.366L490.84 452.068L492.081 451.77L493.31 451.463L494.539 451.165L495.78 450.848L497.021 450.54L498.25 450.224L499.479 449.907L500.72 449.581L501.961 449.264L503.19 448.938L504.431 448.603L505.66 448.277L506.889 447.941L508.13 447.606L509.371 447.261L510.6 446.926L511.829 446.581L513.07 446.237L514.311 445.892L515.54 445.547L516.781 445.193L518.01 444.839L519.239 444.485L520.48 444.131L521.721 443.777L522.95 443.423L524.179 443.06L525.42 442.706L526.661 442.343L527.89 441.979L529.131 441.616L530.36 441.253L531.589 440.889L532.83 440.526L534.071 440.163L535.3 439.799L536.529 439.436L537.77 439.063L539.011 438.7L540.24 438.337L541.481 437.973L542.71 437.601L543.939 437.237L545.18 436.874L546.421 436.511L547.65 436.148L548.879 435.784L550.12 435.421L551.361 435.058L552.59 434.694L553.831 434.331L555.06 433.977L556.289 433.614L557.53 433.26L558.771 432.906L560 432.552V569H66V392Z" fill="#3B80FC"/>
</g>
<g filter="url(#filter12_i_25_27)">
<path d="M555.648 286.588C553.694 249.342 543.626 212.973 526.146 180.026C508.667 147.078 484.199 118.348 454.456 95.8446C424.712 73.3417 390.41 57.6098 353.951 49.7495C317.492 41.8893 279.755 42.0907 243.382 50.3395C207.008 58.5884 172.876 74.6855 143.374 97.5045C113.873 120.324 89.713 149.313 72.5863 182.446C55.4596 215.578 45.7794 252.052 44.223 289.317C42.6666 326.582 49.2715 363.736 63.5757 398.181" stroke="#DFDAD7" stroke-width="26" stroke-linecap="round"/>
</g>
<path d="M586.707 132.6C545.948 62.791 481.12 10.2515 404.382 -15.1639C327.645 -40.5793 244.271 -37.1244 169.9 -5.44723C95.5287 26.23 35.2695 83.953 0.425654 156.894C-34.4182 229.836 -41.4527 312.984 -19.3584 390.743C2.73596 468.501 52.4411 535.527 120.434 579.249C188.426 622.97 270.034 640.383 349.951 628.221C429.867 616.059 502.601 575.157 554.509 513.188C606.417 451.22 633.932 372.442 631.894 291.631" stroke="#172A39" stroke-width="126"/>
<g filter="url(#filter13_i_25_27)">
<path d="M745.159 420H664.513V201.818H745.053C767.283 201.818 786.423 206.186 802.474 214.922C818.597 223.587 831.026 236.087 839.761 252.422C848.497 268.686 852.865 288.146 852.865 310.803C852.865 333.53 848.497 353.061 839.761 369.396C831.097 385.732 818.703 398.267 802.581 407.003C786.459 415.668 767.318 420 745.159 420ZM717.247 375.043H743.135C755.351 375.043 765.685 372.983 774.136 368.864C782.659 364.673 789.087 357.891 793.419 348.516C797.822 339.07 800.024 326.499 800.024 310.803C800.024 295.107 797.822 282.607 793.419 273.303C789.016 263.928 782.517 257.18 773.923 253.061C765.401 248.871 754.889 246.776 742.389 246.776H717.247V375.043ZM951.038 423.089C933.851 423.089 919.078 419.574 906.72 412.543C894.433 405.44 884.952 395.568 878.276 382.926C871.67 370.213 868.368 355.476 868.368 338.714C868.368 321.882 871.67 307.145 878.276 294.503C884.952 281.79 894.433 271.918 906.72 264.886C919.078 257.784 933.851 254.233 951.038 254.233C968.226 254.233 982.963 257.784 995.25 264.886C1007.61 271.918 1017.09 281.79 1023.69 294.503C1030.37 307.145 1033.71 321.882 1033.71 338.714C1033.71 355.476 1030.37 370.213 1023.69 382.926C1017.09 395.568 1007.61 405.44 995.25 412.543C982.963 419.574 968.226 423.089 951.038 423.089ZM951.358 383.778C957.608 383.778 962.899 381.861 967.232 378.026C971.564 374.19 974.866 368.864 977.139 362.045C979.483 355.227 980.655 347.344 980.655 338.395C980.655 329.304 979.483 321.349 977.139 314.531C974.866 307.713 971.564 302.386 967.232 298.551C962.899 294.716 957.608 292.798 951.358 292.798C944.895 292.798 939.426 294.716 934.952 298.551C930.548 302.386 927.175 307.713 924.831 314.531C922.558 321.349 921.422 329.304 921.422 338.395C921.422 347.344 922.558 355.227 924.831 362.045C927.175 368.864 930.548 374.19 934.952 378.026C939.426 381.861 944.895 383.778 951.358 383.778ZM1143.76 256.364V294.716H1040.53V256.364H1143.76ZM1062.16 217.159H1114.25V368.544C1114.25 371.74 1114.75 374.332 1115.74 376.321C1116.81 378.239 1118.33 379.624 1120.32 380.476C1122.31 381.257 1124.69 381.648 1127.46 381.648C1129.45 381.648 1131.54 381.47 1133.75 381.115C1136.02 380.689 1137.72 380.334 1138.86 380.05L1146.74 417.656C1144.26 418.366 1140.74 419.254 1136.2 420.32C1131.72 421.385 1126.36 422.06 1120.11 422.344C1107.89 422.912 1097.42 421.491 1088.68 418.082C1080.02 414.602 1073.38 409.205 1068.76 401.889C1064.22 394.574 1062.01 385.376 1062.16 374.297V217.159ZM1279.27 267.23C1278.56 259.418 1275.4 253.345 1269.79 249.013C1264.25 244.609 1256.33 242.408 1246.04 242.408C1239.22 242.408 1233.54 243.295 1228.99 245.071C1224.44 246.847 1221.04 249.297 1218.76 252.422C1216.49 255.476 1215.32 258.991 1215.25 262.969C1215.11 266.236 1215.74 269.112 1217.16 271.598C1218.66 274.084 1220.79 276.286 1223.56 278.203C1226.4 280.05 1229.81 281.683 1233.78 283.104C1237.76 284.524 1242.24 285.767 1247.21 286.832L1265.96 291.094C1276.75 293.438 1286.27 296.562 1294.51 300.469C1302.82 304.375 1309.78 309.027 1315.39 314.425C1321.07 319.822 1325.37 326.037 1328.28 333.068C1331.19 340.099 1332.68 347.983 1332.75 356.719C1332.68 370.497 1329.2 382.322 1322.31 392.195C1315.42 402.067 1305.52 409.631 1292.59 414.886C1279.74 420.142 1264.22 422.77 1246.04 422.77C1227.78 422.77 1211.87 420.036 1198.31 414.567C1184.74 409.098 1174.2 400.788 1166.67 389.638C1159.14 378.487 1155.27 364.389 1155.06 347.344H1205.55C1205.98 354.375 1207.86 360.234 1211.2 364.922C1214.54 369.609 1219.12 373.161 1224.94 375.575C1230.84 377.99 1237.65 379.197 1245.4 379.197C1252.5 379.197 1258.54 378.239 1263.51 376.321C1268.55 374.403 1272.42 371.74 1275.12 368.331C1277.82 364.922 1279.2 361.016 1279.27 356.612C1279.2 352.493 1277.92 348.977 1275.44 346.065C1272.95 343.082 1269.12 340.526 1263.93 338.395C1258.82 336.193 1252.29 334.169 1244.33 332.322L1221.53 326.996C1202.64 322.663 1187.76 315.668 1176.89 306.009C1166.03 296.278 1160.63 283.139 1160.7 266.591C1160.63 253.097 1164.25 241.271 1171.57 231.115C1178.88 220.959 1189 213.04 1201.93 207.358C1214.86 201.676 1229.59 198.835 1246.14 198.835C1263.05 198.835 1277.71 201.712 1290.14 207.464C1302.64 213.146 1312.34 221.136 1319.22 231.435C1326.11 241.733 1329.63 253.665 1329.77 267.23H1279.27ZM1402.48 326.676V420H1350.39V201.818H1400.78V286.406H1402.59C1406.28 276.321 1412.32 268.437 1420.7 262.756C1429.15 257.074 1439.49 254.233 1451.7 254.233C1463.21 254.233 1473.22 256.79 1481.74 261.903C1490.27 266.946 1496.87 274.084 1501.56 283.317C1506.32 292.55 1508.66 303.345 1508.59 315.703V420H1456.5V325.93C1456.57 316.839 1454.29 309.737 1449.68 304.624C1445.06 299.51 1438.56 296.953 1430.18 296.953C1424.71 296.953 1419.88 298.161 1415.69 300.575C1411.57 302.919 1408.34 306.293 1406 310.696C1403.73 315.099 1402.55 320.426 1402.48 326.676ZM1532.11 420V256.364H1584.21V420H1532.11ZM1558.21 237.294C1550.9 237.294 1544.61 234.879 1539.35 230.05C1534.1 225.149 1531.47 219.254 1531.47 212.365C1531.47 205.547 1534.1 199.723 1539.35 194.893C1544.61 189.993 1550.9 187.543 1558.21 187.543C1565.6 187.543 1571.88 189.993 1577.07 194.893C1582.32 199.723 1584.95 205.547 1584.95 212.365C1584.95 219.254 1582.32 225.149 1577.07 230.05C1571.88 234.879 1565.6 237.294 1558.21 237.294ZM1608.36 481.364V256.364H1659.93V284.382H1661.52C1663.66 279.411 1666.67 274.616 1670.58 270C1674.56 265.384 1679.6 261.619 1685.71 258.707C1691.89 255.724 1699.27 254.233 1707.87 254.233C1719.23 254.233 1729.85 257.216 1739.72 263.182C1749.66 269.148 1757.69 278.345 1763.8 290.774C1769.91 303.203 1772.96 319.041 1772.96 338.288C1772.96 356.825 1770.01 372.344 1764.12 384.844C1758.29 397.344 1750.41 406.719 1740.47 412.969C1730.59 419.219 1719.62 422.344 1707.55 422.344C1699.31 422.344 1692.17 420.994 1686.13 418.295C1680.1 415.597 1675.02 412.045 1670.9 407.642C1666.85 403.239 1663.73 398.516 1661.52 393.473H1660.46V481.364H1608.36ZM1659.39 338.182C1659.39 346.989 1660.57 354.659 1662.91 361.193C1665.32 367.727 1668.77 372.805 1673.24 376.428C1677.79 379.979 1683.22 381.754 1689.54 381.754C1695.94 381.754 1701.37 379.979 1705.84 376.428C1710.32 372.805 1713.69 367.727 1715.96 361.193C1718.31 354.659 1719.48 346.989 1719.48 338.182C1719.48 329.375 1718.31 321.74 1715.96 315.277C1713.69 308.814 1710.32 303.807 1705.84 300.256C1701.44 296.705 1696.01 294.929 1689.54 294.929C1683.15 294.929 1677.72 296.669 1673.24 300.149C1668.77 303.629 1665.32 308.601 1662.91 315.064C1660.57 321.527 1659.39 329.233 1659.39 338.182Z" fill="#DFDAD7"/>
</g>
<g filter="url(#filter14_i_25_27)">
<ellipse cx="1558" cy="212.5" rx="29" ry="25.5" fill="#FC573B"/>
</g>
</g>
<defs>
<filter id="filter0_i_25_27" x="292" y="48" width="16" height="243" filterUnits="userSpaceOnUse" color-interpolation-filters="sRGB">
<feFlood flood-opacity="0" result="BackgroundImageFix"/>
<feBlend mode="normal" in="SourceGraphic" in2="BackgroundImageFix" result="shape"/>
<feColorMatrix in="SourceAlpha" type="matrix" values="0 0 0 0 0 0 0 0 0 0 0 0 0 0 0 0 0 0 127 0" result="hardAlpha"/>
<feOffset dy="4"/>
<feGaussianBlur stdDeviation="2"/>
<feComposite in2="hardAlpha" operator="arithmetic" k2="-1" k3="1"/>
<feColorMatrix type="matrix" values="0 0 0 0 0 0 0 0 0 0 0 0 0 0 0 0 0 0 0.25 0"/>
<feBlend mode="normal" in2="shape" result="effect1_innerShadow_25_27"/>
</filter>
<filter id="filter1_i_25_27" x="166" y="79" width="16" height="282" filterUnits="userSpaceOnUse" color-interpolation-filters="sRGB">
<feFlood flood-opacity="0" result="BackgroundImageFix"/>
<feBlend mode="normal" in="SourceGraphic" in2="BackgroundImageFix" result="shape"/>
<feColorMatrix in="SourceAlpha" type="matrix" values="0 0 0 0 0 0 0 0 0 0 0 0 0 0 0 0 0 0 127 0" result="hardAlpha"/>
<feOffset dy="4"/>
<feGaussianBlur stdDeviation="2"/>
<feComposite in2="hardAlpha" operator="arithmetic" k2="-1" k3="1"/>
<feColorMatrix type="matrix" values="0 0 0 0 0 0 0 0 0 0 0 0 0 0 0 0 0 0 0.25 0"/>
<feBlend mode="normal" in2="shape" result="effect1_innerShadow_25_27"/>
</filter>
<filter id="filter2_i_25_27" x="418" y="79" width="16" height="132" filterUnits="userSpaceOnUse" color-interpolation-filters="sRGB">
<feFlood flood-opacity="0" result="BackgroundImageFix"/>
<feBlend mode="normal" in="SourceGraphic" in2="BackgroundImageFix" result="shape"/>
<feColorMatrix in="SourceAlpha" type="matrix" values="0 0 0 0 0 0 0 0 0 0 0 0 0 0 0 0 0 0 127 0" result="hardAlpha"/>
<feOffset dy="4"/>
<feGaussianBlur stdDeviation="2"/>
<feComposite in2="hardAlpha" operator="arithmetic" k2="-1" k3="1"/>
<feColorMatrix type="matrix" values="0 0 0 0 0 0 0 0 0 0 0 0 0 0 0 0 0 0 0.25 0"/>
<feBlend mode="normal" in2="shape" result="effect1_innerShadow_25_27"/>
</filter>
<filter id="filter3_i_25_27" x="45" y="295" width="237" height="20" filterUnits="userSpaceOnUse" color-interpolation-filters="sRGB">
<feFlood flood-opacity="0" result="BackgroundImageFix"/>
<feBlend mode="normal" in="SourceGraphic" in2="BackgroundImageFix" result="shape"/>
<feColorMatrix in="SourceAlpha" type="matrix" values="0 0 0 0 0 0 0 0 0 0 0 0 0 0 0 0 0 0 127 0" result="hardAlpha"/>
<feOffset dy="4"/>
<feGaussianBlur stdDeviation="2"/>
<feComposite in2="hardAlpha" operator="arithmetic" k2="-1" k3="1"/>
<feColorMatrix type="matrix" values="0 0 0 0 0 0 0 0 0 0 0 0 0 0 0 0 0 0 0.25 0"/>
<feBlend mode="normal" in2="shape" result="effect1_innerShadow_25_27"/>
</filter>
<filter id="filter4_i_25_27" x="75" y="171" width="449" height="20" filterUnits="userSpaceOnUse" color-interpolation-filters="sRGB">
<feFlood flood-opacity="0" result="BackgroundImageFix"/>
<feBlend mode="normal" in="SourceGraphic" in2="BackgroundImageFix" result="shape"/>
<feColorMatrix in="SourceAlpha" type="matrix" values="0 0 0 0 0 0 0 0 0 0 0 0 0 0 0 0 0 0 127 0" result="hardAlpha"/>
<feOffset dy="4"/>
<feGaussianBlur stdDeviation="2"/>
<feComposite in2="hardAlpha" operator="arithmetic" k2="-1" k3="1"/>
<feColorMatrix type="matrix" values="0 0 0 0 0 0 0 0 0 0 0 0 0 0 0 0 0 0 0.25 0"/>
<feBlend mode="normal" in2="shape" result="effect1_innerShadow_25_27"/>
</filter>
<filter id="filter5_i_25_27" x="209.82" y="213.82" width="55.3555" height="59.3545" filterUnits="userSpaceOnUse" color-interpolation-filters="sRGB">
<feFlood flood-opacity="0" result="BackgroundImageFix"/>
<feBlend mode="normal" in="SourceGraphic" in2="BackgroundImageFix" result="shape"/>
<feColorMatrix in="SourceAlpha" type="matrix" values="0 0 0 0 0 0 0 0 0 0 0 0 0 0 0 0 0 0 127 0" result="hardAlpha"/>
<feOffset dy="4"/>
<feGaussianBlur stdDeviation="2"/>
<feComposite in2="hardAlpha" operator="arithmetic" k2="-1" k3="1"/>
<feColorMatrix type="matrix" values="0 0 0 0 0 0 0 0 0 0 0 0 0 0 0 0 0 0 0.25 0"/>
<feBlend mode="normal" in2="shape" result="effect1_innerShadow_25_27"/>
</filter>
<filter id="filter6_i_25_27" x="209.82" y="213.82" width="55.3555" height="59.3555" filterUnits="userSpaceOnUse" color-interpolation-filters="sRGB">
<feFlood flood-opacity="0" result="BackgroundImageFix"/>
<feBlend mode="normal" in="SourceGraphic" in2="BackgroundImageFix" result="shape"/>
<feColorMatrix in="SourceAlpha" type="matrix" values="0 0 0 0 0 0 0 0 0 0 0 0 0 0 0 0 0 0 127 0" result="hardAlpha"/>
<feOffset dy="4"/>
<feGaussianBlur stdDeviation="2"/>
<feComposite in2="hardAlpha" operator="arithmetic" k2="-1" k3="1"/>
<feColorMatrix type="matrix" values="0 0 0 0 0 0 0 0 0 0 0 0 0 0 0 0 0 0 0.25 0"/>
<feBlend mode="normal" in2="shape" result="effect1_innerShadow_25_27"/>
</filter>
<filter id="filter7_i_25_27" x="83.8198" y="213.82" width="55.3555" height="59.3545" filterUnits="userSpaceOnUse" color-interpolation-filters="sRGB">
<feFlood flood-opacity="0" result="BackgroundImageFix"/>
<feBlend mode="normal" in="SourceGraphic" in2="BackgroundImageFix" result="shape"/>
<feColorMatrix in="SourceAlpha" type="matrix" values="0 0 0 0 0 0 0 0 0 0 0 0 0 0 0 0 0 0 127 0" result="hardAlpha"/>
<feOffset dy="4"/>
<feGaussianBlur stdDeviation="2"/>
<feComposite in2="hardAlpha" operator="arithmetic" k2="-1" k3="1"/>
<feColorMatrix type="matrix" values="0 0 0 0 0 0 0 0 0 0 0 0 0 0 0 0 0 0 0.25 0"/>
<feBlend mode="normal" in2="shape" result="effect1_innerShadow_25_27"/>
</filter>
<filter id="filter8_i_25_27" x="83.8198" y="213.82" width="55.3555" height="59.3555" filterUnits="userSpaceOnUse" color-interpolation-filters="sRGB">
<feFlood flood-opacity="0" result="BackgroundImageFix"/>
<feBlend mode="normal" in="SourceGraphic" in2="BackgroundImageFix" result="shape"/>
<feColorMatrix in="SourceAlpha" type="matrix" values="0 0 0 0 0 0 0 0 0 0 0 0 0 0 0 0 0 0 127 0" result="hardAlpha"/>
<feOffset dy="4"/>
<feGaussianBlur stdDeviation="2"/>
<feComposite in2="hardAlpha" operator="arithmetic" k2="-1" k3="1"/>
<feColorMatrix type="matrix" values="0 0 0 0 0 0 0 0 0 0 0 0 0 0 0 0 0 0 0.25 0"/>
<feBlend mode="normal" in2="shape" result="effect1_innerShadow_25_27"/>
</filter>
<filter id="filter9_i_25_27" x="328" y="81" width="70" height="74" filterUnits="userSpaceOnUse" color-interpolation-filters="sRGB">
<feFlood flood-opacity="0" result="BackgroundImageFix"/>
<feBlend mode="normal" in="SourceGraphic" in2="BackgroundImageFix" result="shape"/>
<feColorMatrix in="SourceAlpha" type="matrix" values="0 0 0 0 0 0 0 0 0 0 0 0 0 0 0 0 0 0 127 0" result="hardAlpha"/>
<feOffset dy="4"/>
<feGaussianBlur stdDeviation="2"/>
<feComposite in2="hardAlpha" operator="arithmetic" k2="-1" k3="1"/>
<feColorMatrix type="matrix" values="0 0 0 0 0 0 0 0 0 0 0 0 0 0 0 0 0 0 0.25 0"/>
<feBlend mode="normal" in2="shape" result="effect1_innerShadow_25_27"/>
</filter>
<filter id="filter10_i_25_27" x="190.939" y="229.5" width="425.801" height="247.229" filterUnits="userSpaceOnUse" color-interpolation-filters="sRGB">
<feFlood flood-opacity="0" result="BackgroundImageFix"/>
<feBlend mode="normal" in="SourceGraphic" in2="BackgroundImageFix" result="shape"/>
<feColorMatrix in="SourceAlpha" type="matrix" values="0 0 0 0 0 0 0 0 0 0 0 0 0 0 0 0 0 0 127 0" result="hardAlpha"/>
<feOffset dy="4"/>
<feGaussianBlur stdDeviation="2"/>
<feComposite in2="hardAlpha" operator="arithmetic" k2="-1" k3="1"/>
<feColorMatrix type="matrix" values="0 0 0 0 0 0 0 0 0 0 0 0 0 0 0 0 0 0 0.25 0"/>
<feBlend mode="normal" in2="shape" result="effect1_innerShadow_25_27"/>
</filter>
<filter id="filter11_i_25_27" x="66" y="392" width="494" height="181" filterUnits="userSpaceOnUse" color-interpolation-filters="sRGB">
<feFlood flood-opacity="0" result="BackgroundImageFix"/>
<feBlend mode="normal" in="SourceGraphic" in2="BackgroundImageFix" result="shape"/>
<feColorMatrix in="SourceAlpha" type="matrix" values="0 0 0 0 0 0 0 0 0 0 0 0 0 0 0 0 0 0 127 0" result="hardAlpha"/>
<feOffset dy="4"/>
<feGaussianBlur stdDeviation="2"/>
<feComposite in2="hardAlpha" operator="arithmetic" k2="-1" k3="1"/>
<feColorMatrix type="matrix" values="0 0 0 0 0 0 0 0 0 0 0 0 0 0 0 0 0 0 0.25 0"/>
<feBlend mode="normal" in2="shape" result="effect1_innerShadow_25_27"/>
</filter>
<filter id="filter12_i_25_27" x="31" y="31" width="537.649" height="384.185" filterUnits="userSpaceOnUse" color-interpolation-filters="sRGB">
<feFlood flood-opacity="0" result="BackgroundImageFix"/>
<feBlend mode="normal" in="SourceGraphic" in2="BackgroundImageFix" result="shape"/>
<feColorMatrix in="SourceAlpha" type="matrix" values="0 0 0 0 0 0 0 0 0 0 0 0 0 0 0 0 0 0 127 0" result="hardAlpha"/>
<feOffset dy="4"/>
<feGaussianBlur stdDeviation="2"/>
<feComposite in2="hardAlpha" operator="arithmetic" k2="-1" k3="1"/>
<feColorMatrix type="matrix" values="0 0 0 0 0 0 0 0 0 0 0 0 0 0 0 0 0 0 0.25 0"/>
<feBlend mode="normal" in2="shape" result="effect1_innerShadow_25_27"/>
</filter>
<filter id="filter13_i_25_27" x="664.513" y="187.543" width="1108.45" height="297.82" filterUnits="userSpaceOnUse" color-interpolation-filters="sRGB">
<feFlood flood-opacity="0" result="BackgroundImageFix"/>
<feBlend mode="normal" in="SourceGraphic" in2="BackgroundImageFix" result="shape"/>
<feColorMatrix in="SourceAlpha" type="matrix" values="0 0 0 0 0 0 0 0 0 0 0 0 0 0 0 0 0 0 127 0" result="hardAlpha"/>
<feOffset dy="4"/>
<feGaussianBlur stdDeviation="2"/>
<feComposite in2="hardAlpha" operator="arithmetic" k2="-1" k3="1"/>
<feColorMatrix type="matrix" values="0 0 0 0 0 0 0 0 0 0 0 0 0 0 0 0 0 0 0.25 0"/>
<feBlend mode="normal" in2="shape" result="effect1_innerShadow_25_27"/>
</filter>
<filter id="filter14_i_25_27" x="1529" y="187" width="58" height="55" filterUnits="userSpaceOnUse" color-interpolation-filters="sRGB">
<feFlood flood-opacity="0" result="BackgroundImageFix"/>
<feBlend mode="normal" in="SourceGraphic" in2="BackgroundImageFix" result="shape"/>
<feColorMatrix in="SourceAlpha" type="matrix" values="0 0 0 0 0 0 0 0 0 0 0 0 0 0 0 0 0 0 127 0" result="hardAlpha"/>
<feOffset dy="4"/>
<feGaussianBlur stdDeviation="2"/>
<feComposite in2="hardAlpha" operator="arithmetic" k2="-1" k3="1"/>
<feColorMatrix type="matrix" values="0 0 0 0 0 0 0 0 0 0 0 0 0 0 0 0 0 0 0.25 0"/>
<feBlend mode="normal" in2="shape" result="effect1_innerShadow_25_27"/>
</filter>
<clipPath id="clip0_25_27">
<rect width="1815" height="600" fill="white"/>
</clipPath>
</defs>
</svg>
