<svg width="548" height="548" viewBox="0 0 548 548" fill="none" xmlns="http://www.w3.org/2000/svg">
<g clip-path="url(#clip0_37_107)">
<mask id="mask0_37_107" style="mask-type:alpha" maskUnits="userSpaceOnUse" x="-33" y="-126" width="581" height="581">
<circle cx="257.5" cy="164.5" r="290.5" fill="#D9D9D9"/>
</mask>
<g mask="url(#mask0_37_107)">
<g filter="url(#filter0_i_37_107)">
<path d="M599.296 184.479C604.156 196.358 539.604 331.547 521.541 346.467C512.583 353.868 432.824 350.485 351.453 348.627C268.762 346.739 184.424 346.256 173.265 338.908C151.127 324.329 138.708 275.192 139.788 267.633C140.868 260.073 221.322 258.993 224.022 256.294C226.722 253.594 233.741 207.697 236.981 202.837C240.221 197.978 282.878 195.278 285.038 193.118C287.198 190.958 283.958 153.701 286.658 149.381C289.357 145.061 302.856 143.981 305.556 143.981C308.256 143.981 331.475 144.521 333.094 142.901C334.714 141.281 330.935 94.845 334.714 92.6852C338.494 90.5253 367.112 85.1254 370.892 91.065C374.672 97.0046 371.972 138.582 373.052 140.742C374.132 142.901 424.888 139.662 425.968 142.361C427.048 145.061 424.888 205.537 427.048 209.857C429.208 214.176 594.436 172.599 599.296 184.479Z" fill="#FC573B"/>
</g>
<g filter="url(#filter1_i_37_107)">
<path d="M4.79736 263.854V307.646L6.12487 307.264L7.46478 306.882L8.80469 306.509L10.1322 306.137L11.4721 305.755L12.7996 305.393L14.1395 305.021L15.467 304.648L16.8069 304.286L18.1344 303.924L19.4619 303.562L20.8019 303.21L22.1294 302.858L23.4693 302.505L24.8092 302.153L26.1367 301.811L27.4642 301.469L28.8041 301.127L30.144 300.795L31.4715 300.453L32.799 300.131L34.1389 299.799L35.4789 299.477L36.8064 299.155L38.1463 298.843L39.4738 298.532L40.8013 298.23L42.1412 297.918L43.4811 297.626L44.8086 297.324L46.1485 297.033L47.476 296.751L48.8159 296.469L50.1434 296.188L51.4834 295.916L52.8109 295.644L54.1384 295.373L55.4783 295.121L56.8058 294.86L58.1457 294.608L59.4856 294.367L60.8131 294.125L62.153 293.884L63.4805 293.652L64.8204 293.431L66.1479 293.21L67.4754 292.988L68.8154 292.777L70.1429 292.576L71.4828 292.375L72.8227 292.183L74.1502 291.992L75.4901 291.801L76.8176 291.63L78.1575 291.459L79.485 291.288L80.8125 291.127L82.1524 290.966L83.4799 290.815L84.8199 290.674L86.1598 290.534L87.4873 290.403L88.8148 290.272L90.1547 290.151L91.4946 290.041L92.8221 289.93L94.162 289.829L95.4895 289.729L96.817 289.638L98.1569 289.558L99.4968 289.477L100.824 289.407L102.152 289.336L103.492 289.276L104.832 289.216L106.159 289.175L107.499 289.125L108.827 289.095L110.154 289.065L111.494 289.035L112.834 289.025L114.161 289.014L115.489 289.004H116.829L118.169 289.014L119.496 289.025L120.836 289.045L122.164 289.075L123.491 289.105L124.831 289.145L126.171 289.185L127.499 289.236L128.826 289.296L130.166 289.357L131.506 289.427L132.833 289.497L134.173 289.578L135.501 289.668L136.828 289.759L138.168 289.86L139.508 289.97L140.836 290.081L142.163 290.192L143.503 290.322L144.843 290.443L146.17 290.584L147.51 290.725L148.838 290.866L150.165 291.016L151.505 291.177L152.845 291.338L154.173 291.509L155.5 291.691L156.84 291.862L158.18 292.053L159.508 292.244L160.847 292.445L162.175 292.646L163.502 292.847L164.842 293.059L166.17 293.28L167.51 293.501L168.837 293.733L170.177 293.964L171.517 294.206L172.845 294.447L174.185 294.689L175.512 294.95L176.852 295.202L178.179 295.463L179.507 295.735L180.847 296.006L182.174 296.278L183.514 296.56L184.854 296.841L186.182 297.133L187.522 297.425L188.849 297.717L190.189 298.019L191.517 298.33L192.844 298.632L194.184 298.954L195.511 299.266L196.851 299.588L198.191 299.91L199.519 300.242L200.859 300.564L202.186 300.906L203.526 301.238L204.854 301.58L206.181 301.922L207.521 302.274L208.849 302.616L210.188 302.968L211.528 303.33L212.856 303.682L214.196 304.045L215.523 304.407L216.863 304.779L218.191 305.141L219.518 305.513L220.858 305.886L222.186 306.258L223.526 306.63L224.865 307.012L226.193 307.395L227.533 307.777L228.86 308.159L230.2 308.542L231.528 308.924L232.855 309.316L234.195 309.699L235.523 310.091L236.863 310.483L238.203 310.876L239.53 311.268L240.87 311.66L242.197 312.053L243.537 312.445L244.865 312.837L246.192 313.23L247.532 313.632L248.86 314.025L250.2 314.417L251.54 314.809L252.867 315.212L254.207 315.604L255.535 315.996L256.874 316.389L258.202 316.781L259.529 317.173L260.869 317.566L262.197 317.958L263.537 318.35L264.877 318.743L266.204 319.125L267.544 319.517L268.872 319.9L270.211 320.282L271.539 320.664L272.867 321.047L274.206 321.429L275.534 321.801L276.874 322.173L278.214 322.556L279.541 322.918L280.881 323.29L282.209 323.662L283.549 324.025L284.876 324.387L286.204 324.749L287.543 325.101L288.871 325.453L290.211 325.805L291.551 326.157L292.878 326.499L294.218 326.841L295.546 327.183L296.886 327.515L298.213 327.858L299.541 328.179L300.881 328.511L302.208 328.833L303.548 329.155L304.888 329.467L306.215 329.779L307.555 330.081L308.883 330.393L310.223 330.684L311.55 330.986L312.878 331.278L314.218 331.56L315.545 331.841L316.885 332.123L318.225 332.395L319.552 332.666L320.892 332.938L322.22 333.19L323.56 333.451L324.887 333.703L326.215 333.944L327.555 334.185L328.895 334.427L330.222 334.658L331.562 334.88L332.89 335.101L334.217 335.322L335.557 335.534L336.897 335.735L338.224 335.936L339.552 336.127L340.892 336.318L342.232 336.509L343.559 336.68L344.899 336.851L346.227 337.023L347.554 337.183L348.894 337.344L350.234 337.495L351.561 337.636L352.889 337.777L354.229 337.908L355.569 338.039L356.896 338.159L358.236 338.27L359.564 338.381L360.891 338.481L362.231 338.582L363.571 338.672L364.899 338.753L366.226 338.833L367.566 338.904L368.906 338.974L370.233 339.035L371.573 339.095L372.901 339.135L374.228 339.185L375.568 339.216L376.908 339.246L378.236 339.276L379.563 339.286L380.903 339.296L382.243 339.306H383.57L384.91 339.296L386.238 339.286L387.565 339.266L388.905 339.236L390.245 339.206L391.573 339.165L392.9 339.125L394.24 339.075L395.58 339.014L396.908 338.954L398.247 338.884L399.575 338.813L400.902 338.733L402.242 338.642L403.582 338.552L404.91 338.451L406.237 338.34L407.577 338.23L408.917 338.119L410.245 337.988L411.585 337.868L412.912 337.727L414.24 337.586L415.579 337.445L416.919 337.294L418.247 337.133L419.574 336.972L420.914 336.801L422.254 336.62L423.582 336.449L424.922 336.258L426.249 336.067L427.577 335.866L428.917 335.664L430.256 335.463L431.584 335.252L432.911 335.031L434.251 334.809L435.591 334.578L436.919 334.346L438.259 334.105L439.586 333.864L440.914 333.622L442.254 333.361L443.594 333.109L444.921 332.847L446.249 332.576L447.588 332.304L448.928 332.033L450.256 331.751L451.596 331.469L452.923 331.177L454.251 330.886L455.591 330.594L456.931 330.292L458.258 329.98L459.586 329.678L460.926 329.357L462.265 329.045L463.593 328.723L464.933 328.401L466.26 328.069L467.588 327.747L468.928 327.405L470.268 327.073L471.595 326.731L472.923 326.389L474.263 326.037L475.603 325.695L476.93 325.342L478.27 324.98L479.597 324.628L480.925 324.266L482.265 323.904L483.605 323.532L484.932 323.169L486.26 322.797L487.6 322.425L488.94 322.053L490.267 321.68L491.607 321.298L492.935 320.916L494.262 320.534L495.602 320.151L496.942 319.769L498.269 319.387L499.597 318.994L500.937 318.612L502.277 318.22L503.604 317.827L504.944 317.435L506.272 317.043L507.599 316.65L508.939 316.258L510.279 315.866L511.606 315.473L512.934 315.081L514.274 314.678L515.614 314.286L516.941 313.894L518.281 313.501L519.609 313.099L520.936 312.707L522.276 312.314L523.616 311.922L524.944 311.53L526.271 311.137L527.611 310.745L528.951 310.352L530.278 309.96L531.618 309.568L532.946 309.185L534.273 308.793L535.613 308.411L536.953 308.029L538.281 307.646V455H4.79736V263.854Z" fill="#3B80FC"/>
</g>
</g>
</g>
<defs>
<filter id="filter0_i_37_107" x="139.723" y="88.3652" width="459.834" height="266.669" filterUnits="userSpaceOnUse" color-interpolation-filters="sRGB">
<feFlood flood-opacity="0" result="BackgroundImageFix"/>
<feBlend mode="normal" in="SourceGraphic" in2="BackgroundImageFix" result="shape"/>
<feColorMatrix in="SourceAlpha" type="matrix" values="0 0 0 0 0 0 0 0 0 0 0 0 0 0 0 0 0 0 127 0" result="hardAlpha"/>
<feOffset dy="4"/>
<feGaussianBlur stdDeviation="2"/>
<feComposite in2="hardAlpha" operator="arithmetic" k2="-1" k3="1"/>
<feColorMatrix type="matrix" values="0 0 0 0 0 0 0 0 0 0 0 0 0 0 0 0 0 0 0.25 0"/>
<feBlend mode="normal" in2="shape" result="effect1_innerShadow_37_107"/>
</filter>
<filter id="filter1_i_37_107" x="4.79736" y="263.854" width="533.483" height="195.146" filterUnits="userSpaceOnUse" color-interpolation-filters="sRGB">
<feFlood flood-opacity="0" result="BackgroundImageFix"/>
<feBlend mode="normal" in="SourceGraphic" in2="BackgroundImageFix" result="shape"/>
<feColorMatrix in="SourceAlpha" type="matrix" values="0 0 0 0 0 0 0 0 0 0 0 0 0 0 0 0 0 0 127 0" result="hardAlpha"/>
<feOffset dy="4"/>
<feGaussianBlur stdDeviation="2"/>
<feComposite in2="hardAlpha" operator="arithmetic" k2="-1" k3="1"/>
<feColorMatrix type="matrix" values="0 0 0 0 0 0 0 0 0 0 0 0 0 0 0 0 0 0 0.25 0"/>
<feBlend mode="normal" in2="shape" result="effect1_innerShadow_37_107"/>
</filter>
<clipPath id="clip0_37_107">
<rect width="548" height="548" fill="white"/>
</clipPath>
</defs>
</svg>
